<svg width="20" height="20" viewBox="0 0 20 20" fill="none" xmlns="http://www.w3.org/2000/svg">
<path d="M15.8334 3.75H4.16675C3.50371 3.75 2.86782 4.01339 2.39898 4.48223C1.93014 4.95107 1.66675 5.58696 1.66675 6.25V13.75C1.66675 14.413 1.93014 15.0489 2.39898 15.5178C2.86782 15.9866 3.50371 16.25 4.16675 16.25H15.8334C16.4965 16.25 17.1323 15.9866 17.6012 15.5178C18.07 15.0489 18.3334 14.413 18.3334 13.75V6.25C18.3334 5.58696 18.07 4.95107 17.6012 4.48223C17.1323 4.01339 16.4965 3.75 15.8334 3.75ZM16.6667 13.75C16.6667 13.971 16.579 14.183 16.4227 14.3393C16.2664 14.4955 16.0544 14.5833 15.8334 14.5833H4.16675C3.94573 14.5833 3.73377 14.4955 3.57749 14.3393C3.42121 14.183 3.33341 13.971 3.33341 13.75V6.25C3.33341 6.02899 3.42121 5.81702 3.57749 5.66074C3.73377 5.50446 3.94573 5.41667 4.16675 5.41667H15.8334C16.0544 5.41667 16.2664 5.50446 16.4227 5.66074C16.579 5.81702 16.6667 6.02899 16.6667 6.25V13.75ZM13.3334 8.75C12.8904 8.7531 12.4561 8.87389 12.0751 9.1C11.6955 8.87477 11.2631 8.75405 10.8217 8.7501C10.3804 8.74615 9.94583 8.85912 9.56228 9.07752C9.17873 9.29592 8.85984 9.61197 8.63802 9.99355C8.4162 10.3751 8.29935 10.8086 8.29935 11.25C8.29935 11.6914 8.4162 12.1249 8.63802 12.5065C8.85984 12.888 9.17873 13.2041 9.56228 13.4225C9.94583 13.6409 10.3804 13.7538 10.8217 13.7499C11.2631 13.746 11.6955 13.6252 12.0751 13.4C12.4066 13.5967 12.7791 13.714 13.1634 13.7429C13.5478 13.7718 13.9337 13.7114 14.2908 13.5664C14.648 13.4215 14.9668 13.1959 15.2223 12.9074C15.4779 12.6188 15.6632 12.275 15.7639 11.903C15.8646 11.5309 15.8779 11.1406 15.8027 10.7625C15.7276 10.3845 15.566 10.0289 15.3307 9.72364C15.0954 9.41836 14.7927 9.17163 14.4462 9.00273C14.0997 8.83383 13.7189 8.74733 13.3334 8.75V8.75ZM10.9751 12.0833C10.9279 12.0874 10.8806 12.0874 10.8334 12.0833C10.6124 12.0833 10.4004 11.9955 10.2442 11.8393C10.0879 11.683 10.0001 11.471 10.0001 11.25C10.0001 11.029 10.0879 10.817 10.2442 10.6607C10.4004 10.5045 10.6124 10.4167 10.8334 10.4167C10.8806 10.4126 10.9279 10.4126 10.9751 10.4167C10.7865 10.9333 10.7865 11.5 10.9751 12.0167V12.0833ZM13.3334 12.0833C13.1686 12.0833 13.0075 12.0345 12.8704 11.9429C12.7334 11.8513 12.6266 11.7212 12.5635 11.5689C12.5004 11.4166 12.4839 11.2491 12.5161 11.0874C12.5482 10.9258 12.6276 10.7773 12.7442 10.6607C12.8607 10.5442 13.0092 10.4648 13.1708 10.4327C13.3325 10.4005 13.5 10.417 13.6523 10.4801C13.8046 10.5432 13.9347 10.65 14.0263 10.787C14.1179 10.9241 14.1667 11.0852 14.1667 11.25C14.1667 11.471 14.079 11.683 13.9227 11.8393C13.7664 11.9955 13.5544 12.0833 13.3334 12.0833Z" fill="#121826"/>
</svg>
