<svg width="20" height="20" viewBox="0 0 20 20" fill="none" xmlns="http://www.w3.org/2000/svg">
<path d="M17.5001 8.33331C17.6095 8.33334 17.7179 8.3118 17.819 8.26994C17.9201 8.22807 18.012 8.16668 18.0894 8.0893C18.1668 8.01191 18.2282 7.92003 18.27 7.81891C18.3119 7.7178 18.3334 7.60942 18.3334 7.49998V4.99998C18.3335 4.82512 18.2785 4.65469 18.1762 4.51285C18.074 4.37101 17.9297 4.26497 17.7638 4.20978L10.2638 1.70978C10.0926 1.65281 9.90757 1.65281 9.73641 1.70978L2.23641 4.20978C2.07049 4.26497 1.92617 4.37101 1.82392 4.51285C1.72167 4.65469 1.66668 4.82512 1.66675 4.99998V7.49998C1.66672 7.60942 1.68826 7.7178 1.73012 7.81891C1.77199 7.92003 1.83337 8.01191 1.91076 8.0893C1.98815 8.16668 2.08003 8.22807 2.18114 8.26994C2.28226 8.3118 2.39064 8.33334 2.50008 8.33331H3.33341V14.3202C2.84736 14.4914 2.42622 14.8089 2.1278 15.229C1.82939 15.6491 1.66833 16.1513 1.66675 16.6666V18.3333C1.66672 18.4428 1.68826 18.5511 1.73012 18.6522C1.77199 18.7534 1.83337 18.8452 1.91076 18.9226C1.98815 19 2.08003 19.0614 2.18114 19.1033C2.28226 19.1451 2.39064 19.1667 2.50008 19.1666H17.5001C17.6095 19.1667 17.7179 19.1451 17.819 19.1033C17.9201 19.0614 18.012 19 18.0894 18.9226C18.1668 18.8452 18.2282 18.7534 18.27 18.6522C18.3119 18.5511 18.3334 18.4428 18.3334 18.3333V16.6666C18.3318 16.1513 18.1708 15.6491 17.8724 15.229C17.5739 14.8089 17.1528 14.4914 16.6667 14.3202V8.33331H17.5001ZM16.6667 17.5H3.33341V16.6666C3.33364 16.4457 3.4215 16.2339 3.57774 16.0776C3.73397 15.9214 3.9458 15.8335 4.16675 15.8333H15.8334C16.0544 15.8335 16.2662 15.9214 16.4224 16.0776C16.5787 16.2339 16.6665 16.4457 16.6667 16.6666V17.5ZM5.00008 14.1666V8.33331H6.66675V14.1666H5.00008ZM8.33342 14.1666V8.33331H11.6667V14.1666H8.33342ZM13.3334 14.1666V8.33331H15.0001V14.1666H13.3334ZM3.33341 6.66664V5.60056L10.0001 3.37806L16.6667 5.60056V6.66664H3.33341Z" fill="#121826"/>
</svg>
