<svg width="20" height="20" viewBox="0 0 20 20" fill="none" xmlns="http://www.w3.org/2000/svg">
<path d="M16.6667 8.625L11.85 2.45C11.6081 2.19808 11.317 1.99855 10.9947 1.8638C10.6725 1.72904 10.326 1.66192 9.9767 1.66661C9.62744 1.6713 9.28286 1.74769 8.96434 1.89105C8.64583 2.03441 8.36015 2.24167 8.12505 2.5L3.33338 8.625C3.06809 9.03462 2.92633 9.51197 2.92505 10C2.93897 10.4678 3.08014 10.923 3.33338 11.3167L3.38338 11.375L8.16672 17.55C8.40222 17.7993 8.68652 17.9976 9.00192 18.1323C9.31732 18.2671 9.65707 18.3355 10 18.3333C10.3547 18.333 10.7053 18.2587 11.0296 18.1152C11.3539 17.9718 11.6447 17.7622 11.8834 17.5L16.6667 11.375C16.9282 10.9619 17.0628 10.4813 17.0539 9.9925C17.045 9.50373 16.893 9.02829 16.6167 8.625H16.6667ZM15.3584 10.4083L10.6334 16.425C10.4741 16.5717 10.2685 16.6578 10.0523 16.6685C9.83605 16.6791 9.62294 16.6136 9.45005 16.4833L4.70838 10.3917C4.63759 10.2728 4.59749 10.1382 4.59172 10C4.59295 9.87054 4.62134 9.74279 4.67505 9.625L9.40005 3.60833C9.55929 3.46167 9.76493 3.37551 9.98115 3.36485C10.1974 3.35419 10.4105 3.41971 10.5834 3.55L15.275 9.61666C15.3617 9.75079 15.408 9.90699 15.4084 10.0667C15.4027 10.1848 15.3744 10.3008 15.325 10.4083H15.3584Z" fill="#121826"/>
</svg>
