<svg width="24" height="24" viewBox="0 0 24 24" fill="none" xmlns="http://www.w3.org/2000/svg">
<path d="M11.9999 12.71L8.45995 9.17C8.27259 8.98374 8.01913 8.8792 7.75495 8.8792C7.49076 8.8792 7.23731 8.98374 7.04995 9.17C6.95622 9.26296 6.88183 9.37356 6.83106 9.49542C6.78029 9.61728 6.75415 9.74798 6.75415 9.88C6.75415 10.012 6.78029 10.1427 6.83106 10.2646C6.88183 10.3864 6.95622 10.497 7.04995 10.59L11.2899 14.83C11.3829 14.9237 11.4935 14.9981 11.6154 15.0489C11.7372 15.0997 11.8679 15.1258 11.9999 15.1258C12.132 15.1258 12.2627 15.0997 12.3845 15.0489C12.5064 14.9981 12.617 14.9237 12.7099 14.83L16.9999 10.59C17.0926 10.4966 17.166 10.3857 17.2157 10.2639C17.2655 10.1421 17.2907 10.0116 17.2899 9.87999C17.2907 9.74839 17.2655 9.61793 17.2157 9.49609C17.166 9.37425 17.0926 9.26343 16.9999 9.16999C16.8126 8.98374 16.5591 8.8792 16.2949 8.8792C16.0308 8.8792 15.7773 8.98374 15.5899 9.16999L11.9999 12.71Z" fill="#6C727F"/>
</svg>
