<svg width="120" height="36" viewBox="0 0 120 36" fill="none" xmlns="http://www.w3.org/2000/svg">
<path d="M67.296 27.0807V9.56069H71.232V27.0807H67.296ZM55.968 27.0807V9.56069H59.904V27.0807H55.968ZM59.208 20.0007V16.5447H67.992V20.0007H59.208ZM79.1473 27.4887C77.6273 27.4887 76.4593 27.0007 75.6433 26.0247C74.8273 25.0327 74.4193 23.5447 74.4193 21.5607V13.9287H78.2593V21.7527C78.2593 22.4567 78.4593 23.0167 78.8593 23.4327C79.2593 23.8487 79.7953 24.0567 80.4673 24.0567C81.1553 24.0567 81.7153 23.8407 82.1473 23.4087C82.5793 22.9767 82.7953 22.3927 82.7953 21.6567V13.9287H86.6353V27.0807H83.5873V21.5367H83.8513C83.8513 22.8647 83.6753 23.9767 83.3233 24.8727C82.9873 25.7527 82.4833 26.4087 81.8113 26.8407C81.1393 27.2727 80.3073 27.4887 79.3153 27.4887H79.1473ZM90.2001 27.0807V13.6647C90.2001 12.1447 90.6241 11.0167 91.4721 10.2807C92.3361 9.54469 93.6081 9.17669 95.2881 9.17669H96.5841V12.0567H95.1201C94.6881 12.0567 94.3521 12.1767 94.1121 12.4167C93.8881 12.6567 93.7761 12.9927 93.7761 13.4247V27.0807H90.2001ZM88.6641 16.8567V14.0487H96.5361V16.8567H88.6641ZM99.1281 27.0807V13.9287H102.968V27.0807H99.1281ZM97.5681 16.7607V13.9287H102.968V16.7607H97.5681ZM100.616 12.6327C99.8961 12.6327 99.3601 12.4487 99.0081 12.0807C98.6721 11.6967 98.5041 11.2167 98.5041 10.6407C98.5041 10.0487 98.6721 9.56869 99.0081 9.20069C99.3601 8.81669 99.8961 8.62469 100.616 8.62469C101.352 8.62469 101.888 8.81669 102.224 9.20069C102.56 9.56869 102.728 10.0487 102.728 10.6407C102.728 11.2167 102.56 11.6967 102.224 12.0807C101.888 12.4487 101.352 12.6327 100.616 12.6327ZM112.314 27.5367C111.194 27.5367 110.202 27.3447 109.338 26.9607C108.49 26.5767 107.778 26.0647 107.202 25.4247C106.642 24.7687 106.21 24.0407 105.906 23.2407C105.618 22.4247 105.474 21.5927 105.474 20.7447V20.2647C105.474 19.3847 105.618 18.5447 105.906 17.7447C106.21 16.9287 106.642 16.2007 107.202 15.5607C107.762 14.9207 108.458 14.4167 109.29 14.0487C110.138 13.6647 111.098 13.4727 112.17 13.4727C113.578 13.4727 114.762 13.7927 115.722 14.4327C116.698 15.0567 117.442 15.8807 117.954 16.9047C118.466 17.9127 118.722 19.0167 118.722 20.2167V21.5127H107.082V19.3287H116.394L115.146 20.3367C115.146 19.5527 115.034 18.8807 114.81 18.3207C114.586 17.7607 114.25 17.3367 113.802 17.0487C113.37 16.7447 112.826 16.5927 112.17 16.5927C111.498 16.5927 110.93 16.7447 110.466 17.0487C110.002 17.3527 109.65 17.8007 109.41 18.3927C109.17 18.9687 109.05 19.6807 109.05 20.5287C109.05 21.3127 109.162 22.0007 109.386 22.5927C109.61 23.1687 109.962 23.6167 110.442 23.9367C110.922 24.2567 111.546 24.4167 112.314 24.4167C113.018 24.4167 113.594 24.2807 114.042 24.0087C114.49 23.7367 114.794 23.4007 114.954 23.0007H118.482C118.29 23.8807 117.914 24.6647 117.354 25.3527C116.794 26.0407 116.09 26.5767 115.242 26.9607C114.394 27.3447 113.418 27.5367 112.314 27.5367Z" fill="#F6F7FB"/>
<rect x="0.638306" width="9.80223" height="36" rx="4.90111" fill="#5DB082"/>
<rect x="17.644" width="9.80223" height="36" rx="4.90111" fill="#5DB082"/>
<rect width="9.98687" height="36.7641" rx="4.99344" transform="matrix(0.254034 0.967195 -0.96461 0.263681 35.463 7.83984)" fill="#5DB082"/>
<ellipse cx="38" cy="31.6254" rx="4" ry="4.08071" fill="#5DB082"/>
</svg>
